<?xml version="1.0" encoding="UTF-8"?>
<svg xmlns="http://www.w3.org/2000/svg" xmlns:xlink="http://www.w3.org/1999/xlink" width="80px" height="72px" viewBox="0 0 80 72" version="1.1">
<g id="surface1">
<path style=" stroke:none;fill-rule:evenodd;fill:rgb(1.960784%,74.509804%,31.372549%);fill-opacity:1;" d="M 4.734375 48.671875 C 4.367188 48.65625 4.011719 48.554688 3.695312 48.371094 C 2.964844 47.988281 2.421875 47.324219 2.195312 46.535156 C 2.066406 46.191406 2.027344 45.820312 2.074219 45.460938 L 3.554688 28.554688 C 3.648438 27.480469 4.308594 26.539062 5.28125 26.085938 C 6.257812 25.632812 7.402344 25.730469 8.28125 26.347656 C 9.164062 26.964844 9.648438 28.007812 9.554688 29.078125 L 8.6875 38.777344 L 53.707031 1 C 54.976562 -0.0664062 56.867188 0.101562 57.933594 1.371094 C 59 2.640625 58.832031 4.53125 57.5625 5.597656 L 12.542969 43.371094 L 22.164062 44.152344 C 22.960938 44.21875 23.699219 44.597656 24.210938 45.210938 C 24.726562 45.824219 24.976562 46.617188 24.902344 47.414062 C 24.835938 48.210938 24.453125 48.949219 23.839844 49.460938 C 23.226562 49.976562 22.433594 50.226562 21.640625 50.152344 Z M 75.183594 23.277344 C 75.574219 23.320312 75.957031 23.441406 76.300781 23.632812 C 77 24 77.527344 24.625 77.769531 25.378906 C 77.894531 25.753906 77.945312 26.148438 77.921875 26.542969 L 76.441406 43.449219 C 76.375 44.246094 75.992188 44.984375 75.382812 45.496094 C 74.769531 46.011719 73.976562 46.257812 73.179688 46.1875 C 72.382812 46.121094 71.644531 45.738281 71.128906 45.125 C 70.617188 44.511719 70.367188 43.71875 70.441406 42.921875 L 71.308594 33.226562 L 26.289062 71 C 25.019531 72.066406 23.128906 71.902344 22.0625 70.632812 C 21 69.363281 21.164062 67.46875 22.433594 66.40625 L 67.453125 28.628906 L 57.753906 27.800781 C 56.09375 27.65625 54.867188 26.195312 55.015625 24.539062 C 55.160156 22.878906 56.621094 21.65625 58.277344 21.800781 Z M 75.183594 23.277344 "/>
</g>
</svg>
